# xmcd
#
# Track frame offsets:
#	150
#	22466
#	41610
#	58529
#	76749
#	96056
#	117553
#	138757
#	157992
#	176290
#	195177
#	209860
#
# Disc length: 2904 seconds
#
# Revision: 2
# Processed by: cddbd v1.5.2PL0 Copyright (c) Steve Scherf et al.
# Submitted via: audiograbber 1.83.01
#
DISCID=9c0b560c
DTITLE=Foeticide - War, Domain and Torment
DYEAR=2002
DGENRE=Death Metal
TTITLE0=Armed Assault
TTITLE1=The Silence Never More Came Back
TTITLE2=Where Death Resides
TTITLE3=Of Pain and Chemical Death
TTITLE4=Iron Blood (World Domain of Thunder)
TTITLE5=The Night of Damnation
TTITLE6=Flames From a Lost Battle
TTITLE7=The Bloody Sign of a Final Chapter
TTITLE8=Perpetual State of War
TTITLE9=The Strength
TTITLE10=Foetal Necropsy
TTITLE11=Nightmares of Dreams
EXTD=
EXTT0=
EXTT1=
EXTT2=
EXTT3=
EXTT4=
EXTT5=
EXTT6=
EXTT7=
EXTT8=
EXTT9=
EXTT10=
EXTT11=
PLAYORDER=
